<svg width="755" height="718" viewBox="0 0 755 718" fill="none" xmlns="http://www.w3.org/2000/svg">
<path d="M25.4102 253.712C21.6469 265.548 16.1492 276.962 11.3393 288.414C9.02431 293.925 6.72204 301.914 4.34457 306.778C3.73238 308.031 2.60879 309.086 1.89059 310.322C5.6827 293.157 15.0962 267.823 25.4102 253.712Z" fill="#D5E9D7"/>
<path d="M108.74 60.7893C123.334 36.0685 158.386 12.5021 185.806 5.41766C188.167 4.81062 190.542 4.26281 192.931 3.77419C195.319 3.28551 197.718 2.85704 200.128 2.48883C202.537 2.12067 204.955 1.81237 207.38 1.56389C209.805 1.31674 212.235 1.13039 214.669 1.00485C217.103 0.878028 219.539 0.812958 221.976 0.809627C224.414 0.804955 226.85 0.861596 229.285 0.979556C231.719 1.09751 234.149 1.27562 236.575 1.5139C239.001 1.75358 241.419 2.05358 243.829 2.41394C246.24 2.7746 248.64 3.19486 251.029 3.6747C253.419 4.15512 255.795 4.69483 258.158 5.29382C260.519 5.89223 262.865 6.54971 265.194 7.26629C267.524 7.98288 269.834 8.75712 272.124 9.58898C274.415 10.4208 276.684 11.3092 278.931 12.254C281.177 13.2002 283.398 14.2017 285.595 15.2585C287.791 16.3148 289.959 17.4252 292.1 18.5898C294.241 19.7563 296.351 20.9745 298.431 22.2446C327.016 39.4287 350.8 72.0963 358.642 104.434C364.238 127.501 364.673 150.708 358.904 173.766L636.209 293.471C647.09 298.173 658.938 302.359 669.252 308.114C679.794 285.573 712.092 261.063 735.204 252.545C760.889 243.082 792.946 240.23 819.38 247.415C829.588 250.189 839.884 255.008 849.457 259.49C879.743 273.669 905.878 302.369 917.212 333.973C926.52 359.926 928.842 390.176 921.519 416.939C918.431 428.228 913.34 439.372 908.311 449.908C896.18 475.328 874.929 495.261 850.186 508.267C846.14 510.395 842.026 512.791 837.719 514.339C835.778 515.037 831.223 515.922 830.082 517.45C830.183 517.656 830.291 517.859 830.389 518.067C832.565 522.548 833.958 527.479 835.427 532.232C843.59 558.643 845.623 589.55 836.246 615.958C821.266 658.158 801.247 685.23 760.143 704.916C732.256 718.27 692.517 721.418 663.246 711.112C651.596 707.011 638.764 701.954 628.133 695.655C605.637 682.329 586.171 658.529 575.151 634.946C564.712 612.604 560.964 586.474 563.382 562.014C563.842 557.349 564.173 552.352 565.776 547.938L294.525 430.77C281.19 425.007 267.912 418.934 254.39 413.633C244.483 434.161 209.691 458.295 188.776 465.61C186.019 466.588 183.236 467.483 180.425 468.293C177.614 469.103 174.781 469.827 171.926 470.464C169.071 471.103 166.2 471.653 163.312 472.116C160.424 472.579 157.524 472.954 154.612 473.241C151.701 473.528 148.785 473.725 145.862 473.834C142.939 473.944 140.016 473.965 137.092 473.896C134.169 473.828 131.25 473.671 128.335 473.425C125.421 473.179 122.517 472.845 119.624 472.423C114.734 471.737 109.818 471.169 105.061 469.811C94.0958 466.684 82.8324 461.195 72.5525 456.221C42.052 441.461 18.0291 410.321 7.25781 378.66C1.29175 361.122 -0.682977 341.851 0.461413 323.376C0.732314 319.009 1.65652 314.643 1.89059 310.322C2.60879 309.086 3.73238 308.031 4.34457 306.778C6.72204 301.914 9.02431 293.925 11.3393 288.414C16.1492 276.962 21.6469 265.548 25.4102 253.712C28.5228 248.401 32.9464 243.569 37.102 239.06C54.2115 220.493 73.2015 209.329 96.381 199.994C95.0804 197.136 93.8757 194.238 92.7668 191.299C91.6573 188.362 90.646 185.39 89.7329 182.385C88.8193 179.381 88.0058 176.35 87.2924 173.291C86.5792 170.232 85.9673 167.153 85.4568 164.055C84.9467 160.955 84.5391 157.842 84.2339 154.716C83.9287 151.59 83.7268 148.457 83.6284 145.317C83.5295 142.178 83.5343 139.039 83.6429 135.899C83.7514 132.76 83.9631 129.627 84.2779 126.502C84.8797 120.365 85.6342 113.936 87.5093 108.041C88.8455 98.3622 102.614 69.0988 108.74 60.7893ZM108.74 60.7893C102.614 69.0988 88.8455 98.3622 87.5093 108.041L88.8907 108.077C91.9489 104.482 107.061 66.4375 108.74 60.7893Z" fill="#D5E9D7"/>
<path d="M108.74 60.7893C107.061 66.4375 91.9489 104.482 88.8907 108.077L87.5093 108.041C88.8455 98.3622 102.614 69.0988 108.74 60.7893Z" fill="#D5E9D7"/>
</svg>
