<svg width="234" height="215" viewBox="0 0 234 215" fill="none" xmlns="http://www.w3.org/2000/svg">
<path d="M196.089 20.7501C193.861 18.3915 191.948 15.691 189.939 13.1426C188.973 11.916 187.439 10.3785 186.628 9.2197C186.42 8.92133 186.32 8.53129 186.129 8.21092C189.569 11.2513 194.166 16.6092 196.089 20.7501Z" fill="#D5E9D7"/>
<path d="M229.631 64.2069C233.436 70.6686 234.401 81.6493 232.565 88.8006C232.406 89.416 232.232 90.027 232.043 90.6336C231.854 91.2403 231.649 91.8417 231.43 92.4379C231.21 93.0341 230.976 93.6245 230.728 94.2091C230.479 94.7934 230.215 95.3711 229.937 95.9421C229.66 96.5134 229.368 97.0772 229.062 97.6334C228.756 98.1899 228.436 98.7383 228.102 99.2785C227.769 99.8187 227.422 100.35 227.062 100.873C226.702 101.396 226.329 101.91 225.943 102.414C225.557 102.918 225.159 103.412 224.749 103.896C224.338 104.38 223.916 104.853 223.481 105.316C223.047 105.779 222.602 106.23 222.145 106.671C221.688 107.111 221.22 107.54 220.742 107.957C220.264 108.374 219.775 108.779 219.277 109.171C218.778 109.564 218.269 109.943 217.752 110.31C217.234 110.677 216.707 111.031 216.172 111.371C215.636 111.712 215.092 112.039 214.54 112.352C207.018 116.693 196.566 117.976 188.197 115.666C182.227 114.018 176.875 111.176 172.338 106.938L110.092 155.005C107.648 156.89 105.201 159.061 102.588 160.684C106.406 165.946 107.933 176.418 106.967 182.768C105.892 189.825 102.506 197.497 97.5369 202.615C95.6182 204.591 93.2215 206.329 90.9929 207.944C83.9424 213.053 74.0998 215.376 65.4586 213.955C58.3622 212.788 51.1651 209.483 45.9782 204.421C43.7903 202.285 41.8878 199.712 40.1161 197.23C35.8416 191.241 33.9678 183.868 34.1151 176.577C34.1387 175.384 34.11 174.143 34.2991 172.964C34.3843 172.433 34.7558 171.282 34.5509 170.828C34.491 170.825 34.431 170.824 34.3712 170.82C33.0743 170.748 31.7734 170.441 30.5033 170.173C23.447 168.687 16.1361 165.233 11.2888 159.748C3.54298 150.982 -0.115671 142.986 0.567371 131.117C1.03117 123.064 5.31723 113.603 11.3558 108.234C13.7591 106.097 16.5295 103.811 19.3059 102.185C25.181 98.744 33.0649 97.3216 39.8358 97.7975C46.2502 98.2487 52.6868 100.706 57.9656 104.358C58.9723 105.054 60.0714 105.763 60.877 106.688L121.782 59.6797C124.777 57.3692 127.835 55.111 130.748 52.699C127.31 47.838 126.183 36.8445 127.147 31.1474C127.271 30.3948 127.417 29.6466 127.586 28.9028C127.755 28.1591 127.947 27.4213 128.161 26.6894C128.375 25.9575 128.611 25.233 128.869 24.5158C129.127 23.7984 129.406 23.0894 129.708 22.389C130.009 21.6889 130.331 20.9987 130.674 20.3185C131.017 19.6379 131.381 18.9686 131.764 18.3105C132.148 17.6526 132.551 17.0068 132.975 16.3732C133.398 15.7397 133.84 15.1198 134.301 14.5136C135.073 13.4854 135.822 12.4362 136.731 11.5235C138.825 9.41931 141.497 7.54643 143.927 5.83249C151.137 0.747679 161.27 -0.78381 169.854 0.772853C174.608 1.63531 179.256 3.62759 183.329 6.2303C184.291 6.84561 185.172 7.60985 186.129 8.21092C186.32 8.53129 186.42 8.92133 186.628 9.2197C187.439 10.3785 188.973 11.916 189.939 13.1426C191.948 15.691 193.861 18.3915 196.089 20.7501C196.909 22.133 197.455 23.7543 197.961 25.2736C200.044 31.5288 200.201 37.2745 199.413 43.744C200.229 43.8096 201.042 43.9022 201.852 44.0218C202.663 44.1412 203.468 44.2871 204.269 44.4598C205.07 44.6322 205.864 44.8309 206.652 45.056C207.44 45.2811 208.22 45.5318 208.992 45.8081C209.764 46.0847 210.525 46.3863 211.277 46.7129C212.029 47.0395 212.77 47.3906 213.499 47.7661C214.228 48.1414 214.944 48.5404 215.647 48.9631C216.35 49.3858 217.038 49.8312 217.712 50.2991C219.037 51.2142 220.41 52.2012 221.519 53.376C223.56 54.9075 228.506 61.7567 229.631 64.2069ZM229.631 64.2069C228.506 61.7567 223.56 54.9075 221.519 53.376L221.337 53.6864C221.772 54.8396 228.553 63.1082 229.631 64.2069Z" fill="#D5E9D7"/>
<path d="M229.631 64.2069C228.553 63.1082 221.772 54.8396 221.337 53.6864L221.519 53.376C223.56 54.9075 228.506 61.7567 229.631 64.2069Z" fill="#D5E9D7"/>
</svg>
