<svg width="173" height="144" viewBox="0 0 173 144" fill="none" xmlns="http://www.w3.org/2000/svg">
<g opacity="0.18">
<path d="M20.9556 125.557C22.2924 127.467 23.3689 129.588 24.5293 131.611C25.0878 132.585 26.0169 133.839 26.4718 134.748C26.589 134.982 26.6186 135.27 26.7211 135.518C24.5933 132.995 21.8867 128.703 20.9556 125.557Z" fill="#017D65"/>
<path d="M1.66843 91.1351C-0.357621 86.1406 0.114738 78.2285 2.1766 73.3334C2.35458 72.9122 2.54296 72.4957 2.74172 72.084C2.94046 71.6723 3.14938 71.2658 3.3685 70.8646C3.58763 70.4635 3.81658 70.0679 4.05535 69.6781C4.29424 69.2885 4.54272 68.9051 4.80078 68.528C5.05873 68.1506 5.32603 67.7801 5.60267 67.4164C5.87918 67.0525 6.16464 66.6959 6.45907 66.3465C6.75349 65.997 7.0564 65.6551 7.36778 65.3207C7.67932 64.9865 7.999 64.6603 8.32682 64.3421C8.65476 64.0238 8.99032 63.714 9.3335 63.4127C9.67692 63.1112 10.0276 62.8185 10.3856 62.5347C10.7433 62.2509 11.1081 61.9763 11.4798 61.7108C11.8515 61.4453 12.2297 61.1893 12.6142 60.9427C12.9987 60.6961 13.3891 60.4592 13.7855 60.2321C14.182 60.0051 14.5839 59.7882 14.9913 59.5813C15.3984 59.3745 15.8105 59.178 16.2276 58.9917C16.645 58.8055 17.0666 58.6299 17.4924 58.4648C23.305 56.1636 30.88 56.3438 36.5931 58.8625C40.6684 60.659 44.1778 63.2406 46.9597 66.73L96.3402 39.0466C98.2786 37.9609 100.25 36.6723 102.281 35.791C100.119 31.6492 100.137 24.04 101.496 19.6235C103.006 14.7159 106.226 9.61229 110.303 6.49145C111.877 5.28633 113.767 4.30103 115.523 3.38533C121.081 0.487896 128.332 -0.134824 134.333 1.77975C139.261 3.35201 144.035 6.45548 147.192 10.5992C148.524 12.3467 149.607 14.3765 150.605 16.3276C153.016 21.0346 153.571 26.4754 152.697 31.6468C152.554 32.4926 152.443 33.3789 152.184 34.1975C152.068 34.5664 151.682 35.3463 151.779 35.6906C151.822 35.6989 151.864 35.7062 151.906 35.7151C152.822 35.9019 153.716 36.2565 154.591 36.5796C159.457 38.3747 164.296 41.5962 167.167 46.0055C171.755 53.0508 173.515 59.122 171.776 67.4939C170.596 73.1735 166.546 79.4559 161.681 82.6436C159.745 83.9125 157.532 85.2485 155.384 86.1147C150.839 87.9483 145.077 88.1357 140.308 87.089C135.79 86.0972 131.468 83.676 128.096 80.5262C127.453 79.9256 126.745 79.3065 126.27 78.5641L77.9557 105.635C75.58 106.965 73.1648 108.252 70.8368 109.663C72.7707 113.48 72.4125 121.418 71.1247 125.37C70.9572 125.893 70.774 126.41 70.5751 126.921C70.3763 127.432 70.162 127.937 69.9323 128.435C69.703 128.934 69.4586 129.425 69.1991 129.908C68.9398 130.391 68.6659 130.866 68.3775 131.333C68.0893 131.799 67.7871 132.257 67.471 132.705C67.155 133.153 66.8256 133.591 66.4829 134.019C66.1404 134.447 65.7851 134.864 65.4169 135.271C65.0489 135.677 64.6689 136.072 64.2768 136.455C63.6186 137.105 62.9748 137.774 62.2315 138.328C60.5183 139.605 58.4191 140.658 56.5086 141.623C50.8396 144.487 43.4653 144.516 37.5201 142.511C34.2268 141.4 31.1292 139.497 28.5049 137.22C27.8846 136.681 27.3387 136.046 26.7211 135.518C26.6186 135.27 26.589 134.982 26.4718 134.748C26.0169 133.839 25.0878 132.585 24.5293 131.611C23.3689 129.588 22.2924 127.467 20.9556 125.557C20.5178 124.487 20.3004 123.277 20.1006 122.143C19.2782 117.475 19.7732 113.372 21.0172 108.852C20.4432 108.72 19.8741 108.569 19.3099 108.399C18.7458 108.23 18.1878 108.041 17.6359 107.835C17.0841 107.628 16.5397 107.404 16.0025 107.162C15.4653 106.919 14.9367 106.659 14.4167 106.382C13.8965 106.104 13.3861 105.81 12.8853 105.499C12.3846 105.188 11.8945 104.861 11.4152 104.518C10.936 104.174 10.4685 103.816 10.0128 103.441C9.55703 103.067 9.11407 102.678 8.6839 102.275C7.83736 101.486 6.96467 100.64 6.29903 99.6882C5.00792 98.3853 2.21071 92.9958 1.66843 91.1351ZM1.66843 91.1351C2.21071 92.9958 5.00792 98.3853 6.29903 99.6882L6.4615 99.4864C6.27327 98.6206 2.31962 92.0295 1.66843 91.1351Z" fill="#017D65"/>
<path d="M1.66843 91.1351C2.31962 92.0295 6.27327 98.6206 6.4615 99.4864L6.29903 99.6882C5.00792 98.3853 2.21071 92.9958 1.66843 91.1351Z" fill="#017D65"/>
</g>
</svg>
