<svg width="147" height="31" viewBox="0 0 147 31" fill="none" xmlns="http://www.w3.org/2000/svg">
<path d="M49.0748 0.439127C55.1922 1.92094 59.848 6.99816 60.7706 13.2596C61.0294 15.052 60.9788 16.8398 60.6121 18.6749C59.1168 25.8367 52.6764 31.1497 45.0721 30.9955C36.4856 30.8223 29.6654 23.7444 29.8392 15.187C29.9908 7.69786 35.4543 1.53789 42.6022 0.249132C44.7827 -0.136963 46.8369 -0.0560812 49.0748 0.439127ZM38.3744 2.95561C34.2875 5.12262 34.1405 12.495 38.0467 19.4226C39.9218 22.7494 42.5004 25.5269 45.2145 27.1438C47.9287 28.7606 50.5556 29.0849 52.5186 28.0449C56.039 26.18 56.637 20.4535 54.2413 14.4744C53.5323 12.7156 52.5569 10.9285 51.4192 9.33304C48.3904 5.10278 44.3532 2.36197 40.9178 2.35587C39.9845 2.35434 39.127 2.55654 38.3744 2.95561Z" fill="#017D65"/>
<path d="M65.1514 0H65.7448H69.285H72.2243C70.2275 0.335735 70.0399 1.961 71.6784 6.70554L78.2046 24.9893L82.0082 14.3336C84.727 6.70554 85.1282 2.51038 81.0137 0H87.1249H91.6054C89.3506 0.335735 87.9151 1.961 85.9106 6.70554L77.2399 30.9982H76.0608H72.8046L64.1331 6.70554C62.2933 1.961 60.9144 0.335735 58.6719 0H65.1514Z" fill="#017D65"/>
<path d="M105.31 0C103.197 0.335735 102.448 1.961 102.448 6.70554V29.846C110.659 29.5569 113.62 27.8385 114.281 23.7052L115.899 30.9982H102.448H98.9568H92.4766C94.5897 30.6625 95.3385 29.0372 95.3385 24.2927V6.70554C95.3385 1.961 94.5897 0.334972 92.4766 0H105.31Z" fill="#017D65"/>
<path d="M135.146 0.439127C141.263 1.92094 145.918 6.99816 146.842 13.2596C147.1 15.052 147.05 16.8398 146.683 18.6749C145.188 25.8367 138.747 31.1497 131.142 30.9955C122.556 30.8223 115.736 23.7444 115.909 15.187C116.061 7.69786 121.525 1.53789 128.673 0.249132C130.854 -0.136963 132.908 -0.0560812 135.146 0.439127ZM124.445 2.95561C120.359 5.12262 120.212 12.495 124.117 19.4226C125.993 22.7494 128.571 25.5269 131.285 27.1438C133.999 28.7606 136.626 29.0849 138.589 28.0449C142.109 26.18 142.707 20.4535 140.312 14.4744C139.602 12.7156 138.626 10.9285 137.49 9.33304C134.461 5.10278 130.424 2.36197 126.988 2.35587C126.056 2.35434 125.198 2.55654 124.445 2.95561Z" fill="#017D65"/>
<path d="M28.6863 9.45424C28.2752 10.1761 27.3794 10.5225 26.5448 10.4675C25.7356 10.4149 24.9562 10.0158 24.4355 9.39319C23.8337 8.67747 23.6071 7.73588 23.2748 6.86679C22.9487 5.99312 22.4257 5.09579 21.5483 4.77303C20.4703 4.37854 19.142 4.95005 18.5172 5.913C18.2607 6.30596 18.1275 6.93241 18.0509 7.61227V24.2929C18.0509 25.4459 18.0954 26.4142 18.1926 27.2253C18.3748 28.7429 18.7431 29.7082 19.3556 30.2904C19.7598 30.6788 20.2751 30.8985 20.9121 31H8.08016C8.71334 30.8985 9.22401 30.6811 9.62827 30.2972C10.2469 29.7166 10.6175 28.7475 10.802 27.2176C10.8969 26.4088 10.9421 25.4421 10.9421 24.2937V7.68934C10.8678 6.97972 10.7346 6.31969 10.4674 5.91224C9.84264 4.94929 8.51428 4.37778 7.43627 4.77226C6.55963 5.09503 6.03594 5.99235 5.70978 6.86603C5.3775 7.73588 5.15087 8.67747 4.54909 9.39243C4.02769 10.0151 3.24828 10.4141 2.43978 10.4668C1.60524 10.5217 0.709458 10.1753 0.298316 9.45347C-0.0148266 8.90867 -0.0132953 8.24788 0.0081423 7.62143C0.0464237 6.4372 0.227112 5.08205 1.00805 4.27171C1.17113 4.10308 1.35948 3.95734 1.57768 3.84136C2.26368 3.47816 3.09209 3.51402 3.81638 3.24162C4.61493 2.94175 5.22514 2.30004 5.87286 1.74684C6.09106 1.56142 6.31539 1.38134 6.54891 1.21042C6.78166 1.04179 7.0213 0.879269 7.26477 0.726662C7.34746 0.676302 7.49752 0.577107 7.6606 0.467231C8.11385 0.163543 8.6452 0.00101738 9.19186 0.00101738C10.8104 0.00101738 14.2243 -0.00127172 14.4915 0.00101738C14.7564 -0.00127172 18.1704 0.00101738 19.7912 0.00101738C20.3379 0.00101738 20.8692 0.163543 21.3202 0.467231C21.4833 0.577107 21.6356 0.676302 21.7183 0.726662C21.9618 0.878505 22.2014 1.04103 22.4342 1.21042C22.6669 1.38134 22.892 1.56066 23.1102 1.74684C23.7587 2.30004 24.3681 2.94175 25.1667 3.24162C25.891 3.51402 26.7194 3.47816 27.4054 3.84136C27.6274 3.95734 27.8181 4.10537 27.9811 4.27858C28.7583 5.09121 28.9367 6.44025 28.9749 7.62219C28.9971 8.24864 28.9994 8.90943 28.6863 9.45424Z" fill="#017D65"/>
</svg>
