<svg width="150" height="143" viewBox="0 0 150 143" fill="none" xmlns="http://www.w3.org/2000/svg">
<path d="M11.8833 75.5057C11.8129 74.6788 11.6305 73.8695 11.5804 73.0385C11.3726 69.593 12.1331 65.8788 14.6315 63.0907C16.4653 61.0442 19.0123 59.7925 21.8096 59.4964C26.2095 59.0307 30.5151 60.8529 33.7557 63.3432C38.6558 67.109 42.0437 72.9524 42.4759 78.9734C42.7292 82.5002 41.9285 86.3276 39.3268 89.1524C37.4776 91.1601 34.9054 92.3767 32.1298 92.6379C27.6595 93.0583 23.3204 91.1622 20.0697 88.5866C19.8992 88.4497 19.7308 88.3109 19.5645 88.17C19.3981 88.0289 19.2339 87.8858 19.0717 87.7406C18.9096 87.5955 18.7496 87.4483 18.5918 87.299C18.434 87.1498 18.2784 86.9986 18.125 86.8455C17.9716 86.6924 17.8204 86.5374 17.6716 86.3805C17.5227 86.2235 17.3762 86.0647 17.232 85.9041C17.0877 85.7435 16.9459 85.581 16.8064 85.4166C16.6669 85.2525 16.5298 85.0864 16.3951 84.9185C16.2604 84.7507 16.1282 84.5813 15.9984 84.4101C15.8687 84.239 15.7414 84.0662 15.6167 83.8918C15.4919 83.7174 15.3697 83.5414 15.25 83.3638C15.1303 83.1862 15.0133 83.0071 14.8987 82.8264C14.7843 82.646 14.6724 82.4639 14.5631 82.2804C14.4539 82.0969 14.3473 81.9119 14.2433 81.7255C14.1394 81.5393 14.0382 81.3517 13.9396 81.1628C13.841 80.9737 13.7452 80.7834 13.6521 80.592C13.4044 80.0992 13.1832 79.5954 12.9885 79.0807C12.8439 78.7041 12.7295 78.2635 12.5288 77.917L11.8833 75.5057Z" fill="#017D65"/>
<path d="M132.16 45.3279C132.211 46.1385 132.423 46.9328 132.481 47.7479C132.737 51.3555 132.244 54.9682 130.863 58.4196C129.206 62.559 126.152 66.6274 121.784 68.611C119.139 69.8117 116.18 70.0881 113.462 69.2114C109.955 68.0803 107.448 65.3276 105.964 62.245C103.376 56.8706 103.536 50.2249 105.843 44.6094C107.535 40.4927 110.595 36.4848 114.971 34.5416C117.629 33.3609 120.566 33.1307 123.273 34.0288C126.561 35.1193 128.984 37.6588 130.458 40.5337C130.883 41.3627 131.165 42.2345 131.557 43.0731L132.16 45.3279Z" fill="#017D65"/>
<path d="M37.6955 23.0494C37.7278 23.0364 37.7594 23.0224 37.7922 23.0104C40.729 21.9396 44.0528 22.3574 46.804 23.4526C52.808 25.8427 57.1119 31.3288 59.3283 36.9157C61.435 42.2264 62.1046 48.8194 59.4068 54.2483C58.0273 57.0249 55.8336 59.1752 52.7696 60.3178C49.8989 61.4096 46.5228 60.9887 43.8194 59.9283C37.7786 57.559 33.4613 52.0742 31.2201 46.4755C29.1014 41.1829 28.4217 34.5705 31.0973 29.1486C32.463 26.3809 34.6381 24.1923 37.6955 23.0494Z" fill="#017D65"/>
<path d="M80.5288 11.5192L82.0512 11.1109C84.1547 10.7995 86.1104 10.8928 88.0778 11.5961C92.566 13.2004 95.6649 17.1738 97.447 21.217C100.331 27.7607 100.506 35.9569 97.5008 42.7061C95.8757 46.3556 93.1136 49.9284 89.1402 51.5588C89.0578 51.5926 88.975 51.6254 88.8919 51.6573C88.8088 51.6893 88.7254 51.7204 88.6416 51.7503C88.5575 51.7804 88.4732 51.8093 88.3886 51.8372C88.3041 51.8653 88.2192 51.8924 88.1339 51.9186C88.0488 51.9446 87.9634 51.9696 87.8775 51.9936C87.7918 52.0179 87.7057 52.0411 87.6194 52.0632C87.533 52.0853 87.4464 52.1064 87.3595 52.1266C87.2727 52.1468 87.1856 52.1659 87.0984 52.1839C87.0112 52.202 86.9238 52.2191 86.8362 52.2351C86.7485 52.2514 86.6607 52.2665 86.5728 52.2805C86.4849 52.2945 86.3968 52.3075 86.3086 52.3195C86.2204 52.3317 86.1322 52.3428 86.0438 52.3527C85.9554 52.3627 85.867 52.3715 85.7784 52.3792C85.6897 52.3872 85.6011 52.3941 85.5124 52.4C85.4238 52.4059 85.3352 52.4107 85.2466 52.4145C85.1579 52.4183 85.0691 52.4211 84.9804 52.4228C84.8917 52.4245 84.8031 52.4252 84.7146 52.4248C84.626 52.4244 84.5374 52.4231 84.4488 52.4208C84.3604 52.4183 84.2721 52.4148 84.1838 52.4104C84.0954 52.4058 84.0071 52.4002 83.9189 52.3937C83.8308 52.3871 83.7429 52.3796 83.6552 52.3711C83.5674 52.3624 83.4797 52.3527 83.3922 52.342C83.3048 52.3315 83.2175 52.3199 83.1304 52.307C83.0434 52.2943 82.9567 52.2806 82.8702 52.266C82.7834 52.2511 82.697 52.2354 82.611 52.2187C82.5249 52.2018 82.4391 52.1839 82.3535 52.1651C82.268 52.1464 82.1827 52.1266 82.0976 52.1057C82.0127 52.0849 81.9281 52.0632 81.8438 52.0404C81.7594 52.0177 81.6755 51.9939 81.592 51.969C81.5084 51.9442 81.4252 51.9184 81.3424 51.8917C81.2597 51.865 81.1773 51.8372 81.0952 51.8085C81.0132 51.7799 80.9317 51.7502 80.8506 51.7195C76.2955 50.0488 73.2197 45.9772 71.4532 41.8491C68.6451 35.2865 68.5489 27.0975 71.6296 20.3866C73.4555 16.4094 76.1978 13.2602 80.5288 11.5192Z" fill="#017D65"/>
<path d="M111.348 120.228C109.761 120.469 108.219 120.691 106.618 120.774C99.9972 121.117 93.8584 120.32 87.207 121.858C84.6044 122.459 82.1692 123.488 79.813 124.705C72.1808 128.644 63.7795 135.645 54.6143 133.334C52.5252 132.807 50.5738 131.874 48.8532 130.697C44.1388 127.472 41.4975 122.436 40.8075 117.028C40.7785 116.779 40.7529 116.529 40.7309 116.279C40.7088 116.029 40.6902 115.779 40.6751 115.529C40.6601 115.278 40.6485 115.027 40.6403 114.776C40.6322 114.524 40.6276 114.273 40.6265 114.021C40.6254 113.77 40.6277 113.518 40.6336 113.266C40.6395 113.014 40.6488 112.762 40.6617 112.51C40.6746 112.258 40.6909 112.006 40.7107 111.754C40.7306 111.503 40.7539 111.251 40.7807 110.999C40.8076 110.748 40.8378 110.496 40.8715 110.245C40.9053 109.994 40.9425 109.743 40.9832 109.492C41.0239 109.242 41.0681 108.992 41.1156 108.742C41.1632 108.492 41.2142 108.242 41.2687 107.993C41.3231 107.745 41.381 107.496 41.4422 107.248C41.5035 107 41.5682 106.753 41.6362 106.506C41.7043 106.26 41.7758 106.014 41.8506 105.769C41.9254 105.523 42.0036 105.279 42.0851 105.035C42.1825 104.738 42.2841 104.441 42.3899 104.145C42.4957 103.85 42.6056 103.555 42.7195 103.261C42.8335 102.968 42.9515 102.676 43.0737 102.385C43.1958 102.094 43.3219 101.805 43.4521 101.516C43.5823 101.228 43.7165 100.942 43.8547 100.656C43.9929 100.371 44.135 100.087 44.2811 99.8054C44.4271 99.5232 44.577 99.2426 44.7308 98.9636C44.8847 98.6849 45.0423 98.4078 45.2038 98.1324C45.9523 96.8592 46.813 95.6527 47.5977 94.3997C48.0359 93.6906 48.4541 92.9722 48.8522 92.2444C49.2501 91.5166 49.6274 90.7805 49.9839 90.0359C51.594 86.6981 52.858 83.2491 54.1323 79.8058C55.9403 74.9194 57.7151 69.6344 61.18 65.4399C64.132 61.8661 67.7804 60.0931 72.4429 59.3914C78.076 58.5437 82.7751 59.8885 87.1535 62.9039C89.4919 64.5141 91.5762 66.4127 93.6522 68.2951C96.1344 70.5456 98.5983 72.8103 101.307 74.8339C101.741 75.1608 102.181 75.4802 102.628 75.792C103.074 76.1039 103.527 76.4079 103.987 76.7041C104.446 77.0003 104.911 77.2886 105.383 77.5689C105.854 77.8493 106.331 78.1215 106.814 78.3854C108.499 79.3016 110.241 80.1043 111.878 81.0959C118.949 85.3802 124.947 92.0635 125.949 100.165C126.549 105.014 125.171 109.897 121.845 113.893C119.586 116.608 117.115 118.284 113.719 119.593L111.348 120.228Z" fill="#017D65"/>
</svg>
