<svg width="133" height="129" viewBox="0 0 133 129" fill="none" xmlns="http://www.w3.org/2000/svg">
<path d="M18.6005 80.5335C18.374 79.9096 18.0653 79.322 17.8534 78.6908C16.9751 76.0737 16.7835 73.0519 18.118 70.391C19.0975 68.4378 20.7898 66.9528 22.8734 66.1546C26.1508 64.8989 29.8333 65.4284 32.8384 66.6905C37.3823 68.5991 41.1999 72.4194 42.7877 76.9788C43.7178 79.6495 43.9022 82.7668 42.4962 85.4771C41.4968 87.4035 39.7779 88.8665 37.7036 89.6334C34.3627 90.8684 30.6391 90.2887 27.6085 88.9628C27.4492 88.8919 27.2911 88.819 27.1341 88.7441C26.9771 88.6691 26.8212 88.5921 26.6666 88.5131C26.512 88.4341 26.3585 88.353 26.2064 88.27C26.0542 88.187 25.9033 88.102 25.7537 88.015C25.6041 87.9281 25.4558 87.8392 25.309 87.7485C25.162 87.6576 25.0165 87.5648 24.8723 87.4702C24.7282 87.3757 24.5855 87.2791 24.4442 87.1807C24.303 87.0824 24.1632 86.9821 24.0248 86.8799C23.8865 86.7779 23.7498 86.674 23.6146 86.5684C23.4793 86.4627 23.3457 86.3553 23.2136 86.2461C23.0816 86.1369 22.9511 86.0259 22.8223 85.9132C22.6934 85.8005 22.5662 85.6861 22.4407 85.57C22.3152 85.454 22.1915 85.3363 22.0694 85.2169C21.9473 85.0974 21.8269 84.9764 21.7083 84.8537C21.5897 84.7311 21.473 84.6069 21.358 84.4812C21.2429 84.3553 21.1297 84.228 21.0184 84.0992C20.7256 83.7692 20.4508 83.4255 20.1941 83.0678C20.0046 82.8066 19.8249 82.4898 19.5987 82.2632L18.6005 80.5335Z" fill="#017D65"/>
<path d="M105.125 32.4084C105.331 33.0244 105.66 33.5943 105.873 34.2121C106.818 36.9469 107.186 39.8407 106.833 42.7938C106.41 46.3355 104.893 50.1116 101.928 52.5489C100.133 54.0243 97.9037 54.8503 95.6218 54.7356C92.6776 54.5875 90.1698 52.9794 88.3847 50.9046C85.2724 47.287 84.0194 42.1184 84.6393 37.3013C85.0937 33.7699 86.6288 30.0391 89.6074 27.6317C91.417 26.169 93.6391 25.3831 95.9171 25.5166C98.6833 25.6788 101.081 27.1397 102.816 29.0561C103.316 29.6087 103.715 30.2239 104.191 30.7909L105.125 32.4084Z" fill="#017D65"/>
<path d="M27.756 34.3784C27.7782 34.3617 27.7997 34.3443 27.8226 34.3283C29.8702 32.8928 32.5251 32.5275 34.8779 32.8044C40.0125 33.4084 44.4744 36.7568 47.3442 40.6154C50.072 44.2832 51.9548 49.2393 50.9944 53.9931C50.5035 56.4243 49.2537 58.5402 47.1226 60.0574C45.1305 61.4954 42.4344 61.869 40.1257 61.6092C34.9672 61.0289 30.4951 57.6843 27.6037 53.8218C24.8704 50.1704 22.9757 45.2014 23.9204 40.4576C24.4025 38.0361 25.6301 35.8946 27.756 34.3784Z" fill="#017D65"/>
<path d="M58.563 16.545L59.6637 15.9092C61.237 15.2273 62.7795 14.891 64.4579 15.0267C68.2869 15.3361 71.5267 17.7784 73.7556 20.5501C77.363 25.036 79.204 31.3735 78.2674 37.2505C77.761 40.4283 76.3532 43.7842 73.5979 45.8828C73.5408 45.9262 73.4832 45.9691 73.4251 46.0112C73.367 46.0535 73.3085 46.0951 73.2495 46.1359C73.1903 46.1768 73.1306 46.217 73.0706 46.2563C73.0106 46.2958 72.9501 46.3347 72.8892 46.3729C72.8283 46.4109 72.7669 46.4482 72.7051 46.4848C72.6433 46.5216 72.5811 46.5576 72.5185 46.5929C72.4558 46.6281 72.3928 46.6627 72.3293 46.6965C72.2659 46.7304 72.2021 46.7634 72.1379 46.7956C72.0737 46.828 72.0092 46.8596 71.9444 46.8903C71.8794 46.9213 71.8142 46.9514 71.7487 46.9806C71.6831 47.0099 71.6172 47.0384 71.551 47.0662C71.4849 47.0941 71.4185 47.1212 71.3517 47.1474C71.285 47.1736 71.2179 47.199 71.1506 47.2235C71.0832 47.2482 71.0156 47.2722 70.9478 47.2953C70.8799 47.3183 70.8119 47.3406 70.7438 47.3621C70.6754 47.3836 70.6069 47.4043 70.5382 47.4242C70.4694 47.4441 70.4006 47.4631 70.3316 47.4813C70.2625 47.4995 70.1932 47.517 70.1238 47.5338C70.0544 47.5503 69.9849 47.5661 69.9152 47.5811C69.8454 47.596 69.7755 47.6101 69.7054 47.6235C69.6355 47.6368 69.5655 47.6493 69.4953 47.661C69.4252 47.6726 69.3549 47.6834 69.2845 47.6934C69.2142 47.7035 69.1439 47.7127 69.0734 47.7209C69.003 47.7292 68.9326 47.7367 68.8621 47.7434C68.7915 47.75 68.7209 47.7558 68.6505 47.7608C68.5799 47.7657 68.5094 47.7697 68.4388 47.7729C68.3683 47.7762 68.2977 47.7787 68.2271 47.7802C68.1567 47.7818 68.0863 47.7826 68.0159 47.7825C67.9455 47.7825 67.8752 47.7815 67.805 47.7796C67.7347 47.7778 67.6645 47.7752 67.5945 47.7717C67.5246 47.7682 67.4546 47.7638 67.3847 47.7586C67.3149 47.7535 67.2452 47.7475 67.1757 47.7406C63.2808 47.3935 60.0386 44.8701 57.8042 42.0291C54.2522 37.5124 52.4739 31.1642 53.4771 25.3012C54.0718 21.8266 55.5523 18.8042 58.563 16.545Z" fill="#017D65"/>
<path d="M104.867 94.8797C103.7 95.389 102.564 95.8746 101.354 96.2659C96.3495 97.883 91.4784 98.5241 86.6981 101.066C84.8276 102.061 83.174 103.35 81.6199 104.768C76.5854 109.358 71.5959 116.462 64.0909 116.556C62.3804 116.578 60.6911 116.259 59.1282 115.705C54.8457 114.187 51.7771 110.851 50.1274 106.831C50.0536 106.645 49.9823 106.459 49.9135 106.271C49.8448 106.083 49.7787 105.894 49.7152 105.704C49.6517 105.515 49.5908 105.324 49.5325 105.132C49.4742 104.941 49.4186 104.748 49.3656 104.555C49.3126 104.361 49.2622 104.167 49.2145 103.972C49.1668 103.777 49.1217 103.581 49.0794 103.385C49.037 103.188 48.9973 102.991 48.9603 102.793C48.9234 102.595 48.8891 102.397 48.8575 102.198C48.8259 101.999 48.797 101.799 48.7708 101.599C48.7446 101.399 48.7212 101.198 48.7004 100.997C48.6797 100.796 48.6617 100.594 48.6464 100.392C48.631 100.19 48.6184 99.988 48.6086 99.7854C48.5987 99.5827 48.5916 99.3797 48.5872 99.1765C48.5828 98.9732 48.5811 98.7697 48.5822 98.5661C48.5833 98.3624 48.5871 98.1586 48.5937 97.9547C48.6002 97.7507 48.6094 97.5466 48.6214 97.3425C48.6344 97.0934 48.6508 96.8443 48.6705 96.5951C48.6904 96.3461 48.7136 96.097 48.7401 95.8479C48.7667 95.5989 48.7967 95.35 48.83 95.1013C48.8633 94.8525 48.9 94.6039 48.9401 94.3555C48.9802 94.1072 49.0237 93.8592 49.0705 93.6116C49.1173 93.3638 49.1674 93.1165 49.2209 92.8696C49.2744 92.6226 49.3312 92.376 49.3913 92.13C49.4514 91.8841 49.5149 91.6386 49.5816 91.3937C49.8915 90.2611 50.3013 89.1569 50.6431 88.0324C50.8321 87.3973 51.0038 86.7591 51.1582 86.1177C51.3124 85.4765 51.449 84.8329 51.568 84.1871C52.1106 81.29 52.3648 78.3779 52.628 75.468C53.0014 71.3388 53.2666 66.9096 55.0535 62.9741C56.5758 59.6211 59.0052 57.5113 62.4341 56.0187C66.5768 54.2154 70.4578 54.29 74.4392 55.7154C76.5655 56.4766 78.5568 57.5115 80.5383 58.5358C82.9076 59.7602 85.2658 60.9993 87.7617 62.0028C88.1618 62.1658 88.5655 62.3216 88.9726 62.4702C89.3797 62.6189 89.7899 62.7603 90.2034 62.8943C90.6169 63.0284 91.0334 63.1551 91.4528 63.2745C91.8722 63.3939 92.2943 63.5059 92.7192 63.6103C94.2008 63.9709 95.7027 64.2326 97.163 64.6611C103.472 66.5127 109.455 70.4296 111.902 76.4581C113.367 80.0669 113.322 84.1058 111.601 87.8603C110.432 90.4107 108.885 92.2051 106.552 93.9061L104.867 94.8797Z" fill="#017D65"/>
</svg>
