<svg width="247" height="248" viewBox="0 0 247 248" fill="none" xmlns="http://www.w3.org/2000/svg">
<path d="M114.131 9.81019L138.611 40.6018L172.427 20.5057L178.232 59.4121L217.566 58.9166L203.139 95.5129L237.451 114.751L206.66 139.231L226.756 173.047L187.849 178.852L188.345 218.186L151.749 203.76L132.511 238.071L108.031 207.28L74.2142 227.376L68.4096 188.469L29.0757 188.965L43.502 152.369L9.19008 133.131L39.9817 108.651L19.8856 74.8343L58.792 69.0297L58.2965 29.6958L94.8928 44.1221L114.131 9.81019Z" fill="#FE6B40"/>
<path d="M91.6193 107.993L94.7612 108.5L96.2326 111.213L97.3068 112.998L99.8344 117.608L96.4682 117.065L94.7425 113.965L94.0281 112.507L91.6193 107.993ZM102.104 106.461C101.771 108.524 101.099 110.229 100.088 111.576C99.0852 112.917 97.8568 113.87 96.4033 114.435C94.956 115.001 93.3939 115.149 91.717 114.878C90.0401 114.607 88.6007 113.975 87.3986 112.982C86.2039 111.983 85.3382 110.689 84.8016 109.099C84.2723 107.504 84.1736 105.678 84.5056 103.621C84.8386 101.558 85.5067 99.8553 86.5099 98.5141C87.5203 97.1677 88.7492 96.2116 90.1965 95.6456C91.6501 95.0807 93.2153 94.9336 94.8922 95.2042C96.569 95.4748 98.0054 96.1064 99.2012 97.0989C100.403 98.0924 101.269 99.3866 101.798 100.982C102.335 102.571 102.437 104.398 102.104 106.461ZM98.6157 105.898C98.8502 104.446 98.8203 103.184 98.5262 102.113C98.2394 101.037 97.7382 100.179 97.0228 99.5392C96.3084 98.8931 95.4307 98.486 94.3896 98.3179C93.3486 98.1499 92.3874 98.2602 91.5059 98.6489C90.6255 99.0313 89.8768 99.6875 89.2597 100.618C88.6499 101.543 88.2278 102.731 87.9934 104.184C87.759 105.636 87.7852 106.901 88.0721 107.977C88.3662 109.048 88.8704 109.906 89.5848 110.552C90.3003 111.192 91.1785 111.596 92.2195 111.764C93.2606 111.932 94.2213 111.825 95.1017 111.443C95.9831 111.054 96.7288 110.397 97.3386 109.472C97.9556 108.542 98.3813 107.351 98.6157 105.898ZM113.053 111.855L114.396 103.533L117.781 104.079L115.463 118.442L112.181 117.912L112.593 115.359L112.444 115.335C111.99 116.087 111.351 116.659 110.526 117.05C109.708 117.443 108.76 117.552 107.681 117.378C106.74 117.226 105.942 116.883 105.286 116.348C104.637 115.809 104.176 115.104 103.9 114.235C103.626 113.359 103.581 112.347 103.766 111.2L105.242 102.055L108.627 102.602L107.236 111.223C107.089 112.133 107.221 112.896 107.634 113.513C108.046 114.13 108.657 114.503 109.467 114.634C109.966 114.715 110.469 114.671 110.976 114.503C111.482 114.336 111.924 114.036 112.301 113.604C112.685 113.167 112.936 112.584 113.053 111.855ZM122.24 119.833C121.33 119.686 120.537 119.392 119.86 118.95C119.19 118.503 118.695 117.924 118.374 117.213C118.06 116.504 117.979 115.678 118.131 114.737C118.262 113.927 118.52 113.281 118.905 112.799C119.289 112.318 119.766 111.96 120.335 111.725C120.903 111.491 121.525 111.345 122.2 111.287C122.881 111.225 123.577 111.212 124.287 111.25C125.143 111.299 125.838 111.331 126.373 111.347C126.909 111.357 127.307 111.306 127.568 111.194C127.836 111.078 127.997 110.857 128.049 110.533L128.058 110.477C128.172 109.773 128.051 109.194 127.696 108.74C127.34 108.286 126.77 107.996 125.985 107.869C125.155 107.735 124.469 107.81 123.924 108.093C123.386 108.377 122.993 108.751 122.745 109.217L119.657 108.258C120.047 107.425 120.576 106.762 121.244 106.269C121.913 105.769 122.686 105.44 123.562 105.281C124.44 105.115 125.38 105.114 126.384 105.276C127.076 105.387 127.752 105.58 128.411 105.852C129.071 106.125 129.654 106.494 130.161 106.96C130.669 107.419 131.043 107.994 131.283 108.686C131.529 109.378 131.576 110.201 131.422 111.154L129.87 120.767L126.616 120.242L126.935 118.269L126.823 118.251C126.553 118.616 126.202 118.944 125.772 119.232C125.349 119.516 124.84 119.718 124.244 119.84C123.656 119.956 122.988 119.954 122.24 119.833ZM123.521 117.487C124.2 117.597 124.811 117.558 125.353 117.371C125.896 117.177 126.338 116.877 126.678 116.472C127.025 116.067 127.241 115.6 127.326 115.07L127.6 113.377C127.479 113.448 127.286 113.499 127.018 113.533C126.757 113.568 126.465 113.588 126.145 113.594C125.824 113.599 125.507 113.599 125.195 113.594C124.882 113.588 124.611 113.583 124.382 113.578C123.866 113.565 123.396 113.604 122.972 113.696C122.548 113.787 122.198 113.954 121.922 114.198C121.647 114.435 121.474 114.771 121.404 115.208C121.303 115.831 121.455 116.339 121.858 116.73C122.262 117.121 122.816 117.374 123.521 117.487ZM138.96 102.585L135.869 121.735L132.484 121.189L135.575 102.039L138.96 102.585ZM138.56 122.169L140.878 107.807L144.263 108.353L141.945 122.716L138.56 122.169ZM142.909 106.043C142.373 105.956 141.94 105.704 141.611 105.287C141.283 104.863 141.159 104.398 141.241 103.893C141.323 103.382 141.587 102.98 142.03 102.687C142.475 102.388 142.966 102.282 143.502 102.368C144.044 102.456 144.476 102.711 144.798 103.134C145.127 103.552 145.251 104.016 145.168 104.527C145.087 105.032 144.823 105.434 144.379 105.733C143.941 106.027 143.451 106.13 142.909 106.043ZM154.126 109.945L153.703 112.563L145.446 111.23L145.869 108.612L154.126 109.945ZM148.463 105.5L151.848 106.046L149.672 119.53C149.598 119.985 149.61 120.345 149.708 120.611C149.813 120.871 149.974 121.063 150.191 121.187C150.407 121.312 150.656 121.397 150.936 121.442C151.148 121.476 151.344 121.492 151.524 121.489C151.71 121.487 151.851 121.481 151.949 121.471L152.092 124.209C151.901 124.242 151.631 124.269 151.283 124.29C150.94 124.311 150.528 124.29 150.046 124.225C149.194 124.113 148.451 123.862 147.817 123.471C147.184 123.075 146.716 122.545 146.414 121.883C146.118 121.221 146.045 120.441 146.196 119.545L148.463 105.5ZM155.083 130.362C154.622 130.288 154.201 130.181 153.82 130.043C153.445 129.912 153.149 129.781 152.934 129.651L154.145 127.141C154.614 127.363 155.043 127.503 155.43 127.559C155.818 127.615 156.177 127.549 156.508 127.359C156.845 127.177 157.159 126.831 157.453 126.322L157.868 125.592L155.026 110.09L158.616 110.67L160.176 122.05L160.326 122.075L165.396 111.764L168.996 112.345L160.646 127.518C160.256 128.236 159.795 128.83 159.265 129.301C158.734 129.778 158.124 130.108 157.436 130.291C156.753 130.481 155.968 130.505 155.083 130.362ZM65.9054 138.081C64.4716 137.849 63.2913 137.336 62.3643 136.54C61.4436 135.746 60.7954 134.749 60.4196 133.55C60.0511 132.345 59.9841 131.017 60.2185 129.564C60.4539 128.106 60.9422 126.864 61.6833 125.838C62.4255 124.807 63.358 124.062 64.481 123.603C65.6111 123.14 66.8775 123.021 68.2801 123.248C69.4458 123.436 70.4428 123.817 71.271 124.392C72.1065 124.962 72.7294 125.68 73.1398 126.546C73.5511 127.405 73.7107 128.358 73.6185 129.405L70.3832 128.883C70.364 128.17 70.1453 127.543 69.7273 127.002C69.3165 126.456 68.7028 126.117 67.8862 125.986C67.1943 125.874 66.5563 125.963 65.9723 126.252C65.3893 126.536 64.8955 127 64.4908 127.644C64.0924 128.29 63.8152 129.096 63.6593 130.062C63.5013 131.041 63.5089 131.905 63.6819 132.656C63.856 133.401 64.1711 134.005 64.6271 134.468C65.0904 134.927 65.6742 135.213 66.3786 135.327C66.8773 135.407 67.3381 135.386 67.761 135.262C68.1912 135.133 68.5695 134.91 68.8959 134.591C69.2223 134.273 69.4771 133.863 69.6603 133.362L72.8956 133.884C72.6506 134.887 72.206 135.74 71.5619 136.442C70.9187 137.137 70.1157 137.635 69.1528 137.933C68.191 138.226 67.1085 138.275 65.9054 138.081ZM80.4061 140.421C78.9661 140.189 77.7707 139.689 76.82 138.921C75.8766 138.149 75.2134 137.165 74.8304 135.971C74.4485 134.771 74.3787 133.42 74.6212 131.918C74.8596 130.44 75.3494 129.189 76.0905 128.164C76.8389 127.133 77.7714 126.388 78.8881 125.929C80.0058 125.463 81.2504 125.341 82.6218 125.562C83.507 125.705 84.3192 125.983 85.0584 126.397C85.8048 126.805 86.4326 127.354 86.9416 128.044C87.457 128.735 87.8152 129.566 88.0164 130.539C88.2186 131.506 88.2181 132.618 88.0149 133.878L87.8474 134.916L76.075 133.016L76.4432 130.734L84.971 132.11C85.0693 131.461 85.0222 130.862 84.8294 130.313C84.6376 129.757 84.3191 129.293 83.8739 128.921C83.435 128.549 82.8913 128.311 82.243 128.207C81.5511 128.095 80.9161 128.165 80.3382 128.417C79.7612 128.663 79.2825 129.034 78.9019 129.529C78.5287 130.019 78.2871 130.584 78.1772 131.225L77.8558 133.217C77.721 134.052 77.758 134.794 77.9669 135.441C78.1768 136.083 78.5303 136.607 79.0276 137.013C79.5259 137.413 80.1428 137.673 80.8784 137.792C81.3708 137.871 81.8276 137.875 82.2487 137.802C82.6708 137.723 83.0505 137.57 83.3877 137.343C83.725 137.116 84.0011 136.812 84.2161 136.431L87.3193 137.296C86.985 138.099 86.487 138.767 85.8254 139.3C85.171 139.828 84.3829 140.193 83.461 140.396C82.5402 140.593 81.5219 140.601 80.4061 140.421ZM88.9115 141.506L91.2295 127.143L94.5116 127.673L94.1252 130.067L94.2748 130.091C94.6705 129.304 95.2224 128.738 95.9307 128.391C96.6462 128.04 97.4154 127.931 98.2382 128.063C98.4253 128.094 98.6326 128.137 98.8602 128.193C99.0951 128.243 99.2879 128.297 99.4387 128.353L98.9362 131.467C98.8009 131.394 98.5804 131.313 98.2747 131.226C97.9763 131.133 97.6837 131.063 97.397 131.017C96.7799 130.917 96.2034 130.962 95.6677 131.15C95.1392 131.334 94.697 131.637 94.341 132.059C93.985 132.481 93.7577 132.998 93.6591 133.609L92.2964 142.052L88.9115 141.506ZM108.823 129.983L108.4 132.601L100.144 131.268L100.566 128.65L108.823 129.983ZM103.16 125.538L106.545 126.084L104.369 139.568C104.295 140.023 104.308 140.383 104.406 140.648C104.511 140.909 104.672 141.101 104.888 141.225C105.105 141.35 105.353 141.435 105.634 141.48C105.846 141.514 106.041 141.53 106.221 141.527C106.407 141.525 106.549 141.519 106.646 141.509L106.789 144.247C106.599 144.28 106.329 144.307 105.98 144.328C105.638 144.349 105.225 144.327 104.743 144.262C103.892 144.151 103.149 143.9 102.514 143.509C101.881 143.113 101.413 142.583 101.111 141.92C100.815 141.259 100.742 140.479 100.893 139.583L103.16 125.538ZM108.546 144.675L110.864 130.312L114.249 130.858L111.931 145.221L108.546 144.675ZM112.895 128.548C112.359 128.462 111.926 128.21 111.597 127.792C111.269 127.368 111.145 126.904 111.227 126.399C111.309 125.888 111.572 125.485 112.016 125.193C112.461 124.893 112.952 124.787 113.488 124.874C114.03 124.961 114.462 125.216 114.784 125.639C115.113 126.057 115.237 126.521 115.154 127.033C115.073 127.537 114.809 127.939 114.365 128.239C113.927 128.533 113.437 128.636 112.895 128.548ZM124.214 132.467L123.792 135.085L115.301 133.715L115.724 131.096L124.214 132.467ZM115.529 145.802L118.065 130.083C118.221 129.117 118.551 128.345 119.053 127.767C119.562 127.191 120.182 126.798 120.913 126.59C121.643 126.382 122.423 126.344 123.252 126.478C123.838 126.573 124.351 126.704 124.791 126.871C125.231 127.037 125.554 127.176 125.76 127.286L124.665 129.795C124.528 129.729 124.355 129.656 124.143 129.577C123.933 129.492 123.694 129.428 123.426 129.385C122.797 129.283 122.326 129.364 122.015 129.627C121.711 129.885 121.514 130.294 121.423 130.855L118.923 146.349L115.529 145.802ZM123.757 147.13L126.075 132.767L129.46 133.313L127.142 147.676L123.757 147.13ZM128.106 131.003C127.57 130.917 127.137 130.665 126.808 130.247C126.48 129.823 126.357 129.359 126.438 128.854C126.521 128.343 126.784 127.94 127.228 127.647C127.673 127.348 128.163 127.242 128.699 127.329C129.242 127.416 129.674 127.671 129.996 128.094C130.325 128.512 130.448 128.976 130.366 129.487C130.284 129.992 130.021 130.394 129.576 130.694C129.138 130.988 128.648 131.091 128.106 131.003ZM136.053 149.402C134.619 149.17 133.439 148.657 132.512 147.861C131.591 147.067 130.943 146.07 130.567 144.871C130.199 143.666 130.131 142.338 130.366 140.885C130.601 139.427 131.09 138.185 131.831 137.159C132.573 136.128 133.505 135.383 134.628 134.925C135.759 134.461 137.025 134.342 138.428 134.569C139.593 134.757 140.59 135.138 141.418 135.713C142.254 136.283 142.877 137.001 143.287 137.867C143.699 138.726 143.858 139.679 143.766 140.726L140.531 140.204C140.511 139.491 140.293 138.864 139.875 138.323C139.464 137.777 138.85 137.438 138.034 137.307C137.342 137.195 136.704 137.284 136.12 137.573C135.537 137.857 135.043 138.321 134.638 138.965C134.24 139.611 133.963 140.417 133.807 141.383C133.649 142.362 133.656 143.227 133.829 143.977C134.003 144.722 134.318 145.326 134.774 145.79C135.238 146.248 135.822 146.534 136.526 146.648C137.025 146.728 137.486 146.707 137.908 146.583C138.339 146.454 138.717 146.231 139.043 145.912C139.37 145.594 139.624 145.184 139.808 144.683L143.043 145.205C142.798 146.208 142.353 147.061 141.709 147.763C141.066 148.458 140.263 148.956 139.3 149.254C138.338 149.547 137.256 149.596 136.053 149.402ZM148.326 151.392C147.416 151.245 146.623 150.951 145.946 150.509C145.276 150.062 144.781 149.483 144.461 148.773C144.147 148.063 144.066 147.238 144.217 146.297C144.348 145.486 144.606 144.84 144.991 144.359C145.375 143.877 145.852 143.519 146.421 143.285C146.99 143.05 147.611 142.904 148.286 142.847C148.967 142.784 149.663 142.772 150.374 142.81C151.229 142.858 151.924 142.89 152.459 142.906C152.995 142.916 153.393 142.865 153.654 142.754C153.923 142.637 154.083 142.417 154.135 142.093L154.144 142.037C154.258 141.332 154.137 140.753 153.782 140.299C153.427 139.845 152.856 139.555 152.071 139.428C151.242 139.294 150.555 139.369 150.01 139.652C149.472 139.936 149.079 140.311 148.831 140.776L145.743 139.817C146.133 138.985 146.662 138.322 147.33 137.828C147.999 137.329 148.772 136.999 149.648 136.84C150.526 136.675 151.466 136.673 152.47 136.835C153.162 136.947 153.838 137.139 154.497 137.412C155.157 137.684 155.74 138.054 156.247 138.519C156.755 138.979 157.129 139.554 157.369 140.245C157.616 140.937 157.662 141.76 157.508 142.714L155.957 152.326L152.703 151.801L153.021 149.828L152.909 149.81C152.639 150.176 152.288 150.503 151.858 150.792C151.435 151.075 150.926 151.278 150.331 151.399C149.743 151.515 149.075 151.513 148.326 151.392ZM149.607 149.047C150.286 149.157 150.897 149.118 151.439 148.93C151.982 148.736 152.424 148.437 152.764 148.031C153.111 147.626 153.327 147.159 153.413 146.629L153.686 144.937C153.566 145.007 153.372 145.059 153.104 145.092C152.843 145.127 152.552 145.147 152.231 145.153C151.91 145.159 151.594 145.159 151.281 145.153C150.969 145.148 150.698 145.142 150.468 145.137C149.952 145.124 149.482 145.163 149.058 145.255C148.634 145.346 148.284 145.514 148.008 145.757C147.733 145.994 147.56 146.331 147.49 146.767C147.389 147.391 147.541 147.898 147.945 148.289C148.348 148.681 148.902 148.933 149.607 149.047ZM168.06 139.543L167.638 142.161L159.381 140.829L159.804 138.211L168.06 139.543ZM162.397 135.098L165.782 135.645L163.606 149.128C163.533 149.583 163.545 149.944 163.643 150.209C163.748 150.469 163.909 150.661 164.125 150.786C164.342 150.91 164.591 150.995 164.871 151.04C165.083 151.074 165.279 151.09 165.458 151.087C165.644 151.085 165.786 151.079 165.883 151.069L166.027 153.808C165.836 153.841 165.566 153.868 165.217 153.888C164.875 153.91 164.463 153.888 163.981 153.823C163.129 153.711 162.386 153.46 161.752 153.07C161.118 152.673 160.651 152.144 160.348 151.481C160.052 150.819 159.98 150.04 160.131 149.143L162.397 135.098ZM173.942 155.517C172.502 155.284 171.307 154.784 170.356 154.017C169.413 153.244 168.749 152.261 168.366 151.067C167.984 149.867 167.915 148.516 168.157 147.013C168.396 145.536 168.885 144.285 169.627 143.259C170.375 142.229 171.307 141.484 172.424 141.024C173.542 140.559 174.786 140.437 176.158 140.658C177.043 140.801 177.855 141.079 178.594 141.493C179.341 141.901 179.969 142.45 180.478 143.14C180.993 143.831 181.351 144.662 181.552 145.635C181.755 146.601 181.754 147.714 181.551 148.974L181.383 150.011L169.611 148.111L169.979 145.83L178.507 147.206C178.605 146.557 178.558 145.958 178.365 145.408C178.174 144.853 177.855 144.389 177.41 144.017C176.971 143.645 176.427 143.407 175.779 143.302C175.087 143.191 174.452 143.261 173.874 143.513C173.297 143.759 172.818 144.129 172.438 144.625C172.065 145.114 171.823 145.68 171.713 146.321L171.392 148.313C171.257 149.148 171.294 149.889 171.503 150.537C171.713 151.179 172.066 151.703 172.564 152.109C173.062 152.509 173.679 152.769 174.414 152.887C174.907 152.967 175.364 152.97 175.785 152.898C176.207 152.819 176.587 152.666 176.924 152.439C177.261 152.212 177.537 151.908 177.752 151.527L180.855 152.392C180.521 153.195 180.023 153.863 179.361 154.396C178.707 154.923 177.919 155.289 176.997 155.492C176.076 155.689 175.058 155.697 173.942 155.517Z" fill="#FBFFDC"/>
</svg>
